<svg width="452" height="354" viewBox="0 0 452 354" fill="none" xmlns="http://www.w3.org/2000/svg">
<path d="M167.768 139.179L163.526 142.892" stroke="#90282A" stroke-width="1.1" stroke-linecap="round" stroke-linejoin="round"/>
<path d="M250.459 196.936L247.261 199.034" stroke="#90282A" stroke-width="1.1" stroke-linecap="round" stroke-linejoin="round"/>
<path d="M343.528 147.408C343.528 176.418 367.04 199.936 396.043 199.936C401.612 199.932 407.145 199.039 412.433 197.291L445.506 207.501C449.194 208.639 452.493 204.881 450.888 201.371L439.62 176.726C445.461 168.066 448.574 157.854 448.558 147.408C448.558 118.397 425.046 94.8789 396.043 94.8789C367.04 94.879 343.528 118.397 343.528 147.408Z" fill="#399FE8"/>
<mask id="mask0_20_36" style="mask-type:luminance" maskUnits="userSpaceOnUse" x="343" y="94" width="109" height="114">
<path fill-rule="evenodd" clip-rule="evenodd" d="M343.528 147.408C343.528 176.418 367.04 199.936 396.043 199.936C401.612 199.932 407.145 199.039 412.433 197.291L445.506 207.501C449.194 208.639 452.493 204.881 450.888 201.371L439.62 176.726C445.461 168.066 448.574 157.854 448.558 147.408C448.558 118.397 425.046 94.8789 396.043 94.8789C367.04 94.879 343.528 118.397 343.528 147.408Z" fill="white"/>
</mask>
<g mask="url(#mask0_20_36)">
<path d="M336.885 178.414C409.219 173.64 411.348 108.152 411.348 108.152L318.954 122.946" fill="#3B8BE2"/>
</g>
<path fill-rule="evenodd" clip-rule="evenodd" d="M343.528 147.408C343.528 176.418 367.04 199.936 396.043 199.936C401.612 199.931 407.145 199.039 412.433 197.291L445.506 207.501C449.194 208.639 452.493 204.881 450.888 201.371L439.62 176.726C445.461 168.066 448.574 157.854 448.558 147.408C448.558 118.397 425.046 94.8789 396.043 94.8789C367.04 94.879 343.528 118.397 343.528 147.408Z" stroke="#190000" stroke-width="1.1" stroke-linecap="round" stroke-linejoin="round"/>
<path d="M363.958 60.7493C337.785 60.7493 316.568 81.9719 316.568 108.152C316.572 113.179 317.377 118.173 318.954 122.946L309.743 152.799C308.717 156.128 312.106 159.105 315.273 157.657L337.507 147.486C345.32 152.758 354.533 155.568 363.958 155.554C390.131 155.554 411.348 134.331 411.348 108.152C411.348 81.9721 390.131 60.7493 363.958 60.7493Z" fill="#409159"/>
<mask id="mask1_20_36" style="mask-type:luminance" maskUnits="userSpaceOnUse" x="309" y="60" width="103" height="99">
<path fill-rule="evenodd" clip-rule="evenodd" d="M363.958 60.7493C337.785 60.7493 316.568 81.9719 316.568 108.152C316.572 113.179 317.377 118.173 318.954 122.946L309.743 152.799C308.717 156.128 312.106 159.105 315.273 157.657L337.507 147.486C345.32 152.758 354.533 155.568 363.958 155.554C390.131 155.554 411.348 134.331 411.348 108.152C411.348 81.9721 390.131 60.7493 363.958 60.7493Z" fill="white"/>
</mask>
<g mask="url(#mask1_20_36)">
<path d="M366.929 55.3422C326.528 79.0957 314.782 120.44 314.782 120.44L272.39 87.7016L306.841 52.427" fill="#357C49"/>
</g>
<path fill-rule="evenodd" clip-rule="evenodd" d="M363.958 60.7493C337.785 60.7493 316.568 81.9719 316.568 108.152C316.572 113.179 317.377 118.173 318.954 122.946L309.743 152.799C308.717 156.128 312.106 159.105 315.273 157.657L337.507 147.486C345.32 152.758 354.533 155.568 363.958 155.554C390.131 155.554 411.348 134.331 411.348 108.152C411.348 81.9721 390.131 60.7493 363.958 60.7493Z" stroke="#190000" stroke-width="1.1" stroke-linecap="round" stroke-linejoin="round"/>
<path d="M420.091 167.009L415.318 170.987" stroke="#2976DF" stroke-width="1.1" stroke-linecap="round" stroke-linejoin="round"/>
<path d="M354.858 101.76L354.063 103.351L354.858 101.76Z" fill="#357C49"/>
<path d="M354.858 101.76L354.063 103.351" stroke="#75AA3C" stroke-width="1.1" stroke-linecap="round" stroke-linejoin="round"/>
<path d="M171.028 93.9961L174.185 97.1537L177.649 100.619L181.409 104.379C182.682 105.653 184.408 106.368 186.208 106.368C188.008 106.368 189.735 105.653 191.008 104.379L194.748 100.638L197.64 97.7455L201.388 93.9961H243.815C247.653 93.9961 251.333 92.4714 254.046 89.7572C256.76 87.0431 258.284 83.3619 258.284 79.5235V15.4726C258.284 7.47961 251.806 1.00002 243.815 1.00001H128.601C124.763 0.995958 121.08 2.51944 118.366 5.23446C115.651 7.94948 114.128 11.633 114.132 15.4726V79.5236C114.132 83.3619 115.657 87.0431 118.37 89.7573C121.084 92.4714 124.764 93.9962 128.601 93.9961H171.028Z" fill="#9879C9"/>
<mask id="mask2_20_36" style="mask-type:luminance" maskUnits="userSpaceOnUse" x="114" y="1" width="145" height="106">
<path fill-rule="evenodd" clip-rule="evenodd" d="M171.028 93.9961L174.185 97.1537L177.649 100.619L181.409 104.379C182.682 105.653 184.408 106.368 186.208 106.368C188.008 106.368 189.735 105.653 191.008 104.379L194.748 100.638L197.64 97.7455L201.388 93.9961H243.815C247.653 93.9961 251.333 92.4714 254.046 89.7572C256.76 87.0431 258.284 83.3619 258.284 79.5235V15.4726C258.284 7.47961 251.806 1.00002 243.815 1.00001H128.601C124.763 0.995958 121.08 2.51944 118.366 5.23446C115.651 7.94948 114.128 11.633 114.132 15.4726V79.5236C114.132 83.3619 115.657 87.0431 118.37 89.7573C121.084 92.4714 124.764 93.9962 128.601 93.9961H171.028Z" fill="white"/>
</mask>
<g mask="url(#mask2_20_36)">
<path d="M202.663 117.019L156.435 53.1572L220.497 29.6238L263.123 106.368L202.663 117.019Z" fill="#6F4EB9"/>
</g>
<path fill-rule="evenodd" clip-rule="evenodd" d="M171.028 93.9961L174.185 97.1537L177.649 100.619L181.409 104.379C182.682 105.653 184.408 106.368 186.208 106.368C188.008 106.368 189.735 105.653 191.008 104.379L194.748 100.638L197.64 97.7454L201.388 93.9961H243.815C247.653 93.9961 251.333 92.4714 254.046 89.7572C256.76 87.0431 258.284 83.3619 258.284 79.5235V15.4726C258.284 7.47961 251.806 1.00002 243.815 1.00001H128.601C124.763 0.995958 121.08 2.51944 118.366 5.23446C115.651 7.94948 114.128 11.633 114.132 15.4726V79.5236C114.132 83.3619 115.657 87.0431 118.37 89.7573C121.084 92.4714 124.764 93.9962 128.601 93.9961H171.028Z" stroke="#190000" stroke-width="1.1" stroke-linecap="round" stroke-linejoin="round"/>
<path d="M166.552 65.1823C170.463 69.1007 174.552 72.7193 177.744 75.4216C180.988 78.1669 183.306 79.9666 183.574 80.1743C185.075 81.3667 187.199 81.3667 188.7 80.1743C189.019 79.9267 192.253 77.4167 196.493 73.7392C199.311 71.2953 202.574 68.3358 205.722 65.1821C207.88 63.0198 209.984 60.7662 211.853 58.5249C213.294 56.8217 214.625 55.0289 215.839 53.1574C216.288 52.4524 216.756 51.7177 217.223 50.9471C218.872 48.2254 220.505 45.0563 221.235 41.1705C221.499 39.7563 221.632 38.3205 221.63 36.8817C221.634 34.4181 221.251 31.9691 220.497 29.624C219.47 26.4147 217.727 23.4813 215.399 21.0459C212.306 17.8343 208.277 15.6922 203.812 15.1671C203.099 15.0833 202.382 15.0414 201.664 15.0415C195.554 15.0415 189.882 18.1018 186.137 23.1594C185.936 22.8873 185.73 22.621 185.517 22.3606C181.789 17.7816 176.391 15.0415 170.611 15.0415C170.435 15.0415 170.259 15.044 170.084 15.049C164.976 15.1945 160.338 17.4497 156.875 21.046C154.547 23.4813 152.804 26.4148 151.777 29.624C151.023 31.9692 150.64 34.4181 150.644 36.8817C150.642 38.3205 150.775 39.7564 151.039 41.1706C151.769 45.0564 153.402 48.2254 155.051 50.9472C155.518 51.7178 155.986 52.4525 156.435 53.1574C157.649 55.029 158.98 56.8218 160.421 58.5251C162.29 60.7664 164.394 63.02 166.552 65.1823Z" fill="#D3575E"/>
<mask id="mask3_20_36" style="mask-type:luminance" maskUnits="userSpaceOnUse" x="150" y="15" width="72" height="67">
<path fill-rule="evenodd" clip-rule="evenodd" d="M166.552 65.1823C170.463 69.1007 174.552 72.7193 177.744 75.4216C180.988 78.1669 183.306 79.9666 183.574 80.1743C185.075 81.3667 187.199 81.3667 188.7 80.1743C189.019 79.9267 192.253 77.4167 196.493 73.7392C199.311 71.2953 202.574 68.3358 205.722 65.1821C207.88 63.0198 209.984 60.7662 211.853 58.5249C213.294 56.8217 214.625 55.0289 215.839 53.1574C216.288 52.4524 216.756 51.7177 217.223 50.9471C218.872 48.2254 220.505 45.0563 221.235 41.1705C221.499 39.7563 221.632 38.3205 221.63 36.8817C221.634 34.4181 221.251 31.9691 220.497 29.624C219.47 26.4147 217.727 23.4813 215.399 21.0459C212.306 17.8343 208.277 15.6922 203.812 15.1671C203.099 15.0833 202.382 15.0414 201.664 15.0415C195.554 15.0415 189.882 18.1018 186.137 23.1594C185.936 22.8873 185.73 22.621 185.517 22.3606C181.789 17.7816 176.391 15.0415 170.611 15.0415C170.435 15.0415 170.259 15.044 170.084 15.049C164.976 15.1945 160.338 17.4497 156.875 21.046C154.547 23.4813 152.804 26.4148 151.777 29.624C151.023 31.9692 150.64 34.4181 150.644 36.8817C150.642 38.3205 150.775 39.7564 151.039 41.1706C151.769 45.0564 153.402 48.2254 155.051 50.9472C155.518 51.7178 155.986 52.4525 156.435 53.1574C157.649 55.029 158.98 56.8218 160.421 58.5251C162.29 60.7664 164.394 63.02 166.552 65.1823Z" fill="white"/>
</mask>
<g mask="url(#mask3_20_36)">
<path d="M187.031 15.0413C222.145 -5.5857 215.825 63.8674 186.369 81.0618C156.913 98.2562 249.07 81.0682 249.07 81.0682L224.332 -6.38135L166.857 -1.60701" fill="#BA424D"/>
</g>
<path fill-rule="evenodd" clip-rule="evenodd" d="M166.552 65.1823C170.463 69.1007 174.552 72.7193 177.744 75.4216C180.988 78.1669 183.306 79.9666 183.574 80.1743C185.075 81.3667 187.199 81.3667 188.7 80.1743C189.019 79.9267 192.253 77.4167 196.493 73.7392C199.311 71.2953 202.574 68.3358 205.722 65.1821C207.88 63.0198 209.984 60.7662 211.853 58.5249C213.294 56.8217 214.625 55.0289 215.839 53.1574C216.288 52.4524 216.756 51.7177 217.223 50.9471C218.872 48.2254 220.505 45.0563 221.235 41.1705C221.499 39.7563 221.632 38.3205 221.63 36.8817C221.634 34.4181 221.251 31.9691 220.497 29.624C219.47 26.4147 217.727 23.4813 215.399 21.0459C212.306 17.8343 208.277 15.6922 203.812 15.1671C203.099 15.0833 202.382 15.0414 201.664 15.0415C195.554 15.0415 189.882 18.1018 186.137 23.1594C185.936 22.8873 185.73 22.621 185.517 22.3606C181.789 17.7816 176.391 15.0415 170.611 15.0415C170.435 15.0415 170.259 15.044 170.084 15.049C164.976 15.1945 160.338 17.4497 156.875 21.046C154.547 23.4813 152.804 26.4148 151.777 29.624C151.023 31.9692 150.64 34.4181 150.644 36.8817C150.642 38.3205 150.775 39.7564 151.039 41.1706C151.769 45.0564 153.402 48.2254 155.051 50.9472C155.518 51.7178 155.986 52.4525 156.435 53.1574C157.649 55.029 158.98 56.8218 160.421 58.5251C162.29 60.7664 164.394 63.02 166.552 65.1823Z" stroke="#190000" stroke-width="1.1" stroke-linecap="round" stroke-linejoin="round"/>
<path d="M130.787 56.5339C129.817 58.8833 130 61.5512 131.283 63.7454" stroke="#6F4EB9" stroke-width="1.1" stroke-linecap="round" stroke-linejoin="round"/>
<path d="M196.746 34.2119L195.948 38.1901" stroke="#90282A" stroke-width="1.1" stroke-linecap="round" stroke-linejoin="round"/>
<rect x="136.833" y="284.411" width="235.508" height="69.2526" rx="6.15003" fill="#6F4EB9"/>
<rect x="136.833" y="281.979" width="235.508" height="69.2526" rx="6.15003" fill="#9879C9"/>
<mask id="mask4_20_36" style="mask-type:luminance" maskUnits="userSpaceOnUse" x="136" y="281" width="237" height="71">
<rect x="136.833" y="281.979" width="235.508" height="69.2526" rx="6.15003" fill="white"/>
</mask>
<g mask="url(#mask4_20_36)">
<path d="M379.381 247.41L163 431.029L447.626 398.597L391.314 259.344" fill="#6F4EB9"/>
</g>
<rect x="136.833" y="281.979" width="235.508" height="69.2526" rx="6.15003" stroke="#190000" stroke-width="1.1" stroke-linecap="round" stroke-linejoin="round"/>
<rect x="197.329" y="302.969" width="145.492" height="9.77612" rx="2.15016" fill="white" stroke="#190000" stroke-width="1.1" stroke-linecap="round" stroke-linejoin="round"/>
<rect x="197.329" y="317.751" width="53.1872" height="9.62837" rx="2.15016" fill="white" stroke="#190000" stroke-width="1.1" stroke-linecap="round" stroke-linejoin="round"/>
<rect x="256.369" y="317.751" width="53.1872" height="9.62837" rx="2.15016" fill="white" stroke="#190000" stroke-width="1.1" stroke-linecap="round" stroke-linejoin="round"/>
<path d="M171.539 297.652C164.454 297.652 158.066 301.921 155.355 308.469C152.644 315.016 154.142 322.553 159.152 327.564C164.162 332.575 171.697 334.074 178.243 331.362C184.789 328.65 189.057 322.261 189.057 315.174C189.057 310.527 187.211 306.07 183.926 302.784C180.641 299.498 176.185 297.652 171.539 297.652V297.652Z" fill="white" stroke="#190000" stroke-width="1.1" stroke-linecap="round" stroke-linejoin="round"/>
<path d="M166.053 288.797L159.655 292.988" stroke="#6F4EB9" stroke-width="1.1" stroke-linecap="round" stroke-linejoin="round"/>
<path d="M340.116 328.755C337.662 330.277 334.941 331.32 332.098 331.826" stroke="#6F4EB9" stroke-width="1.1" stroke-linecap="round" stroke-linejoin="round"/>
<rect x="1" y="176.589" width="285.681" height="84.0063" rx="7.46025" fill="#409159" stroke="#190000" stroke-width="1.1" stroke-linecap="round" stroke-linejoin="round"/>
<rect x="1" y="173.64" width="285.681" height="84.0063" rx="7.46025" fill="#409159"/>
<mask id="mask5_20_36" style="mask-type:luminance" maskUnits="userSpaceOnUse" x="1" y="173" width="286" height="85">
<rect x="1" y="173.64" width="285.681" height="84.0063" rx="7.46025" fill="white"/>
</mask>
<g mask="url(#mask5_20_36)">
<path d="M295.221 131.705L32.7428 354.443L378.005 315.102L309.696 146.181" fill="#357C49"/>
</g>
<rect x="1" y="173.64" width="285.681" height="84.0063" rx="7.46025" stroke="#190000" stroke-width="1.1" stroke-linecap="round" stroke-linejoin="round"/>
<rect x="74.3842" y="199.101" width="176.488" height="11.8588" rx="2.60824" fill="white" stroke="#190000" stroke-width="1.1" stroke-linecap="round" stroke-linejoin="round"/>
<rect x="74.3842" y="217.032" width="64.5183" height="11.6796" rx="2.60824" fill="white" stroke="#190000" stroke-width="1.1" stroke-linecap="round" stroke-linejoin="round"/>
<rect x="146.002" y="217.032" width="64.5183" height="11.6796" rx="2.60824" fill="white" stroke="#190000" stroke-width="1.1" stroke-linecap="round" stroke-linejoin="round"/>
<path d="M43.1004 192.651C34.5058 192.651 26.7574 197.83 23.4684 205.772C20.1793 213.715 21.9973 222.857 28.0746 228.936C34.1519 235.015 43.2917 236.833 51.2321 233.543C59.1725 230.253 64.3497 222.503 64.3497 213.906C64.3497 208.269 62.111 202.863 58.126 198.877C54.1409 194.891 48.7361 192.651 43.1004 192.651V192.651Z" fill="white" stroke="#190000" stroke-width="1.1" stroke-linecap="round" stroke-linejoin="round"/>
<path d="M52.5076 181.869L49.9448 183.177" stroke="#75AA3C" stroke-width="1.1" stroke-linecap="round" stroke-linejoin="round"/>
<path d="M255.859 235.406C253.79 238.663 250.914 241.329 247.512 243.148" stroke="#75AA3C" stroke-width="1.1" stroke-linecap="round" stroke-linejoin="round"/>
<path d="M30.586 162.491L21.0969 165.049L7.03375 168.281C3.91797 168.997 1.92093 172.322 2.56764 175.717C3.16716 178.865 5.84671 181.015 8.78493 180.704C16.8012 179.854 32.5048 178.788 32.5048 178.788L30.586 162.491Z" fill="#FACCC4"/>
<mask id="mask6_20_36" style="mask-type:luminance" maskUnits="userSpaceOnUse" x="2" y="162" width="31" height="19">
<path fill-rule="evenodd" clip-rule="evenodd" d="M30.586 162.491L21.0969 165.049L7.03375 168.281C3.91797 168.997 1.92093 172.322 2.56764 175.717C3.16716 178.865 5.84671 181.015 8.78493 180.704C16.8012 179.854 32.5048 178.788 32.5048 178.788L30.586 162.491Z" fill="white"/>
</mask>
<g mask="url(#mask6_20_36)">
<path d="M34.6949 183.41C18.7972 181.155 21.7141 166.965 21.7141 166.965L30.6656 169.352L35.5386 176.562" fill="#ED707B"/>
</g>
<path fill-rule="evenodd" clip-rule="evenodd" d="M30.586 162.491L21.0969 165.049L7.03375 168.281C3.91797 168.997 1.92093 172.322 2.56764 175.717V175.717C3.16716 178.865 5.84671 181.015 8.78493 180.704C16.8012 179.854 32.5048 178.788 32.5048 178.788L30.586 162.491Z" stroke="#190000" stroke-width="1.1" stroke-linecap="round" stroke-linejoin="round"/>
<path d="M29.1598 179.159C31.8584 178.566 56.3671 177.497 58.8511 175.53L40.2668 151.68L37.1728 148.743C31.4446 151.502 21.097 165.049 21.097 165.049C21.097 165.049 23.791 178.207 29.1598 179.159Z" fill="#399FE8"/>
<mask id="mask7_20_36" style="mask-type:luminance" maskUnits="userSpaceOnUse" x="21" y="148" width="38" height="32">
<path fill-rule="evenodd" clip-rule="evenodd" d="M29.1598 179.159C31.8584 178.566 56.3671 177.497 58.8511 175.53L40.2668 151.68L37.1728 148.743C31.4446 151.502 21.097 165.049 21.097 165.049C21.097 165.049 23.791 178.207 29.1598 179.159Z" fill="white"/>
</mask>
<g mask="url(#mask7_20_36)">
<path d="M38.6453 156.252C52.9877 175.869 30.2395 179.976 30.2395 179.976L49.5921 186.23L63.7008 177.285L62.7019 162.491L40.0672 158.334" fill="#3B8BE2"/>
<path d="M24.2644 157.44C22.8961 167.28 34.6949 179.853 34.6949 179.853L24.2644 157.44Z" fill="#399FE8"/>
<path d="M24.2644 157.44C22.8961 167.28 34.6949 179.853 34.6949 179.853" stroke="#190000" stroke-width="1.1" stroke-linecap="round" stroke-linejoin="round"/>
</g>
<path fill-rule="evenodd" clip-rule="evenodd" d="M29.1598 179.159C31.8584 178.566 56.3671 177.497 58.8511 175.53L40.2668 151.68L37.1728 148.743C31.4446 151.502 21.097 165.049 21.097 165.049C21.097 165.049 23.791 178.207 29.1598 179.159Z" stroke="#190000" stroke-width="1.1" stroke-linecap="round" stroke-linejoin="round"/>
<path d="M20.1022 170.74C24.6489 162.195 35.0383 142.543 35.475 140.588C36.0347 138.081 32.7259 124.33 32.3007 123.686C31.8755 123.043 29.1483 120.153 31.2385 130.263C31.4931 136.857 28.6766 141.251 28.6766 141.251L4.01819 170.131" fill="#FACCC4"/>
<path d="M20.1022 170.74C24.6489 162.195 35.0383 142.543 35.475 140.588C36.0347 138.081 32.7259 124.33 32.3007 123.686C31.8755 123.043 29.1483 120.153 31.2385 130.263C31.4931 136.857 28.6766 141.251 28.6766 141.251L4.01819 170.131" stroke="#190000" stroke-width="1.1" stroke-linecap="round" stroke-linejoin="round"/>
<path d="M238.358 168.283L233.724 170.427L213.256 173.379L207.896 159.869L232.513 157.811" fill="#FACCC4"/>
<mask id="mask8_20_36" style="mask-type:luminance" maskUnits="userSpaceOnUse" x="207" y="157" width="32" height="17">
<path fill-rule="evenodd" clip-rule="evenodd" d="M238.358 168.283L233.724 170.427L213.256 173.379L207.896 159.869L232.513 157.811" fill="white"/>
</mask>
<g mask="url(#mask8_20_36)">
<path d="M216.072 155.584C225.703 167.037 223.127 176.868 223.127 176.868L204.397 178.511L208.921 151.38" fill="#ED707B"/>
</g>
<path d="M238.358 168.283L233.724 170.427L213.256 173.379L207.896 159.869L232.513 157.811" stroke="#190000" stroke-width="1.1" stroke-linecap="round" stroke-linejoin="round"/>
<path d="M224.937 158.188C224.937 158.188 229.724 157.547 233.788 156.49C235.535 156.036 237.387 156.624 238.552 158.002C258.195 181.327 258.183 180.647 258.183 180.647C249.197 186.079 239.351 169.764 231.538 170.742C231.538 170.742 234.25 161.53 224.937 158.188Z" fill="#4B4D5C" stroke="#190000" stroke-width="1.1" stroke-linecap="round" stroke-linejoin="round"/>
<path d="M169.415 166.022L168.506 160.661L159.468 140.582L148.529 145.4L158.114 166.542" fill="#FACCC4"/>
<mask id="mask9_20_36" style="mask-type:luminance" maskUnits="userSpaceOnUse" x="148" y="140" width="22" height="27">
<path fill-rule="evenodd" clip-rule="evenodd" d="M169.415 166.022L168.506 160.661L159.468 140.582L148.529 145.4L158.114 166.542" fill="white"/>
</mask>
<g mask="url(#mask9_20_36)">
<path d="M147.339 149.061C157.97 155.736 171.797 151.158 171.797 151.158L162.078 144.422L146.026 145.146" fill="#ED707B"/>
</g>
<path d="M169.415 166.022L168.506 160.661L159.468 140.582L148.529 145.4L158.114 166.542" stroke="#190000" stroke-width="1.1" stroke-linecap="round" stroke-linejoin="round"/>
<path d="M155.379 159.8C155.379 159.8 152.331 167.821 153.964 172.397C185.591 177.647 190.111 176.318 190.111 176.318C189.331 165.216 171.566 172.747 170.461 159.193C170.461 159.193 163.102 166.347 155.379 159.8Z" fill="#4B4D5C" stroke="#190000" stroke-width="1.1" stroke-linecap="round" stroke-linejoin="round"/>
<path d="M150.057 151.158C150.057 151.158 163.524 151.306 167.921 148.631L156.824 107.585C155.419 102.39 151.015 98.8206 146.011 98.8206C142.974 98.8206 140.066 100.146 137.946 102.497L91.5155 153.981L111.579 167.204L142.73 131.171L150.057 151.158Z" fill="#FB81B2"/>
<mask id="mask10_20_36" style="mask-type:luminance" maskUnits="userSpaceOnUse" x="91" y="98" width="77" height="70">
<path fill-rule="evenodd" clip-rule="evenodd" d="M150.057 151.158C150.057 151.158 163.524 151.306 167.921 148.631L156.824 107.585C155.419 102.39 151.015 98.8206 146.011 98.8206C142.974 98.8206 140.066 100.146 137.946 102.497L91.5155 153.981L111.579 167.204L142.73 131.171L150.057 151.158Z" fill="white"/>
</mask>
<g mask="url(#mask10_20_36)">
<ellipse cx="149.16" cy="97.6277" rx="9.81138" ry="6.76365" fill="#EA70A2"/>
<path d="M139.349 145.696C156.055 149.018 170.573 141.44 170.573 141.44" stroke="#BA393C" stroke-width="1.1" stroke-linecap="round" stroke-linejoin="round"/>
<path d="M158.972 145.348L150.689 120.048C149.114 115.239 142.842 114.083 139.657 118.015L106.136 159.402" stroke="#BA393C" stroke-width="1.1" stroke-linecap="round" stroke-linejoin="round"/>
<path d="M134.594 140.582C126.311 154.165 100.072 154.71 100.072 154.71L124.07 159.193L134.279 156.252" fill="#EA70A2"/>
</g>
<path fill-rule="evenodd" clip-rule="evenodd" d="M150.057 151.158C150.057 151.158 163.524 151.306 167.921 148.631L156.824 107.585C155.419 102.39 151.015 98.8206 146.011 98.8206V98.8206C142.974 98.8206 140.066 100.146 137.946 102.497L91.5155 153.981L111.579 167.204L142.73 131.171L150.057 151.158Z" stroke="#190000" stroke-width="1.1" stroke-linecap="round" stroke-linejoin="round"/>
<path d="M116.167 153.662L217.942 158.712C217.942 158.712 221.24 171.815 217.942 176.868H102.921L101.028 152.911" fill="#FB81B2"/>
<mask id="mask11_20_36" style="mask-type:luminance" maskUnits="userSpaceOnUse" x="101" y="152" width="119" height="25">
<path fill-rule="evenodd" clip-rule="evenodd" d="M116.167 153.662L217.942 158.712C217.942 158.712 221.24 171.815 217.942 176.868H102.921L101.028 152.911" fill="white"/>
</mask>
<g mask="url(#mask11_20_36)">
<path d="M157.627 180.639C102.904 180.012 132.348 162.492 101.198 155.061C87.4274 151.776 102.922 176.868 102.922 176.868L110.346 184.361L137.708 183.709L157.627 183.057" fill="#EA70A2"/>
<path d="M210.415 152.911C214.923 166.192 211.741 180.734 211.741 180.734" stroke="#BA393C" stroke-width="1.1" stroke-linecap="round" stroke-linejoin="round"/>
<path d="M113.902 167.656L212.804 169.153" stroke="#BA393C" stroke-width="1.1" stroke-linecap="round" stroke-linejoin="round"/>
</g>
<path d="M116.167 153.662L217.942 158.712C217.942 158.712 221.24 171.815 217.942 176.868H102.921L101.028 152.911" stroke="#190000" stroke-width="1.1" stroke-linecap="round" stroke-linejoin="round"/>
<path d="M36.4824 149.795C36.4824 149.795 45.8185 133.326 72.6208 131.876L101.879 167.043L93.2635 173.75L56.4728 175.653C56.4728 175.653 46.8446 172.527 40.6624 161.474" fill="#399FE8"/>
<mask id="mask12_20_36" style="mask-type:luminance" maskUnits="userSpaceOnUse" x="36" y="131" width="66" height="45">
<path fill-rule="evenodd" clip-rule="evenodd" d="M36.4824 149.795C36.4824 149.795 45.8185 133.326 72.6208 131.876L101.879 167.043L93.2635 173.75L56.4728 175.653C56.4728 175.653 46.8446 172.527 40.6624 161.474" fill="white"/>
</mask>
<g mask="url(#mask12_20_36)">
<ellipse cx="48.31" cy="141.131" rx="10.9107" ry="12.9414" transform="rotate(-27.4933 48.31 141.131)" fill="#FACCC4" stroke="#190000" stroke-width="1.1" stroke-linecap="round" stroke-linejoin="round"/>
<path d="M74.3135 144.089C93.0418 167.085 66.3848 168.876 66.3848 168.876L91.5154 180.734L105.153 179.159L100.159 158.903L79.1828 144.089" fill="#3B8BE2"/>
<path d="M65.5649 156.252C71.3324 154.92 72.8572 150.477 72.8572 150.477L78.0943 157.572C78.3926 160.68 74.7797 163.951 70.9347 163.341L65.5649 156.252Z" fill="white" stroke="#190000" stroke-width="1.1" stroke-linecap="round" stroke-linejoin="round"/>
</g>
<path d="M36.4824 149.795C36.4824 149.795 45.8185 133.326 72.6208 131.876L101.879 167.043L93.2635 173.75L56.4728 175.653C56.4728 175.653 46.8446 172.527 40.6624 161.474" stroke="#190000" stroke-width="1.1" stroke-linecap="round" stroke-linejoin="round"/>
<path d="M42.9723 147.63L38.2092 133.844L50.2015 129.306L54.3938 141.44" fill="#FACCC4"/>
<mask id="mask13_20_36" style="mask-type:luminance" maskUnits="userSpaceOnUse" x="38" y="129" width="17" height="19">
<path fill-rule="evenodd" clip-rule="evenodd" d="M42.9723 147.63L38.2092 133.844L50.2015 129.306L54.3938 141.44" fill="white"/>
</mask>
<g mask="url(#mask13_20_36)">
<path d="M37.681 146.544C46.3409 148.971 51.3706 139.017 51.3706 139.017L41.0879 139.313L38.3166 142.366L38.6427 143.387" fill="#ED707B"/>
</g>
<path d="M42.9723 147.63L38.2092 133.844L50.2015 129.306L54.3938 141.44" stroke="#190000" stroke-width="1.1" stroke-linecap="round" stroke-linejoin="round"/>
<path d="M53.5887 125.793L34.1856 134.121L30.8612 124.937C30.2946 123.372 31.0006 121.603 32.438 120.986L46.6354 114.892C48.0729 114.275 49.6975 115.044 50.2641 116.609L53.5887 125.793Z" fill="#4B4D5C" stroke="#190000" stroke-width="1.1" stroke-linecap="round" stroke-linejoin="round"/>
<path d="M47.1931 140.936C42.854 142.578 38.1141 140.079 36.6061 135.354L32.3679 122.074L48.081 116.128L52.3192 129.408C53.8272 134.132 51.5321 139.294 47.1931 140.936Z" fill="#FACCC4"/>
<mask id="mask14_20_36" style="mask-type:luminance" maskUnits="userSpaceOnUse" x="32" y="116" width="21" height="26">
<path fill-rule="evenodd" clip-rule="evenodd" d="M47.1931 140.936C42.854 142.578 38.1141 140.079 36.6061 135.354L32.3679 122.074L48.081 116.128L52.3192 129.408C53.8272 134.132 51.5321 139.294 47.1931 140.936Z" fill="white"/>
</mask>
<g mask="url(#mask14_20_36)">
<path d="M39.0388 129.204C39.0283 129.18 39.039 129.153 39.0626 129.142C39.0863 129.132 39.114 129.142 39.1245 129.166L40.0883 131.34C40.0988 131.364 40.0881 131.391 40.0644 131.402C40.0408 131.412 40.0131 131.402 40.0026 131.378L39.0388 129.204Z" fill="#190000"/>
<path d="M46.3566 125.914C46.368 125.909 46.4075 125.969 46.4664 126.08C46.5254 126.192 46.599 126.345 46.671 126.508L47.1296 127.543C47.2796 127.881 47.382 128.164 47.3583 128.174C47.3346 128.185 47.1939 127.919 47.0439 127.581L46.5853 126.546C46.5133 126.383 46.4487 126.226 46.4058 126.107C46.3629 125.989 46.3452 125.919 46.3566 125.914L46.3566 125.914Z" fill="#190000"/>
<path d="M38.96 127.292C36.7746 127.623 37.0917 128.643 38.4744 128.518C39.8571 128.393 40.3878 127.076 38.96 127.292Z" fill="#190000"/>
<path d="M45.6902 124.57C47.5256 123.422 47.76 124.274 46.6381 125.054C45.5163 125.835 44.491 125.32 45.6902 124.57Z" fill="#190000"/>
<path d="M44.8516 129.705C45.0649 130.186 44.5335 130.193 43.9822 130.438C43.4309 130.682 43.0686 131.071 42.8554 130.59C42.6421 130.109 42.916 129.52 43.4672 129.276C44.0185 129.031 44.6383 129.223 44.8516 129.705Z" fill="#ED707B"/>
<ellipse cx="40.7761" cy="132.605" rx="1.79915" ry="1.02892" transform="rotate(-19.6652 40.7761 132.605)" fill="#ED707B"/>
<ellipse cx="48.2673" cy="129.555" rx="1.79915" ry="1.02892" transform="rotate(-19.6652 48.2673 129.555)" fill="#ED707B"/>
</g>
<path fill-rule="evenodd" clip-rule="evenodd" d="M47.1931 140.936V140.936C42.854 142.578 38.1141 140.079 36.6061 135.354L32.3679 122.074L48.081 116.128L52.3192 129.408C53.8272 134.132 51.5321 139.294 47.1931 140.936Z" stroke="#190000" stroke-width="1.1" stroke-linecap="round" stroke-linejoin="round"/>
<path d="M43.0752 106.716C40.6713 108.085 39.3867 110.762 39.8144 113.146C35.4025 117.824 28.3199 111.806 32.248 123.323L33.752 126.899C33.1912 117.689 41.1162 127.008 44.1433 119.541C44.7004 118.192 45.7571 117.11 47.0928 116.522C47.2799 116.438 47.4654 116.343 47.6494 116.239C50.4896 114.621 51.768 111.178 50.5049 108.548C49.2417 105.919 45.9155 105.098 43.0752 106.716Z" fill="#4B4D5C" stroke="#190000" stroke-width="1.1" stroke-linecap="round" stroke-linejoin="round"/>
<path d="M52.4782 127.846L51.5709 127.2C51.8096 137.831 49.8197 131.047 44.7416 133.255C39.5006 134.952 41.8032 141.617 35.9359 133.117L35.5924 134.236C35.5924 134.236 36.5398 141.513 44.3517 142.555C46.5669 142.851 48.775 142.015 50.3444 140.287C55.8789 134.194 52.4782 127.846 52.4782 127.846Z" fill="#4B4D5C" stroke="#190000" stroke-width="1.1" stroke-linecap="round" stroke-linejoin="round"/>
<path d="M36.0644 128.358C27.5262 125.078 31.4409 137.55 38.2093 133.844L36.0644 128.358Z" fill="#FACCC4"/>
<path d="M36.0644 128.358C27.5262 125.078 31.4409 137.55 38.2093 133.844" stroke="#190000" stroke-width="1.1" stroke-linecap="round" stroke-linejoin="round"/>
<path d="M48.7603 123.554C53.59 115.215 57.622 127.642 50.2016 129.306L48.7603 123.554Z" fill="#FACCC4"/>
<path d="M48.7603 123.554C53.59 115.215 57.622 127.642 50.2016 129.306" stroke="#190000" stroke-width="1.1" stroke-linecap="round" stroke-linejoin="round"/>
<path d="M101.878 175.653L80.8766 153.446L94.7355 145.697L113.902 165.707L101.878 175.653Z" fill="#FACCC4"/>
<mask id="mask15_20_36" style="mask-type:luminance" maskUnits="userSpaceOnUse" x="80" y="145" width="34" height="31">
<path fill-rule="evenodd" clip-rule="evenodd" d="M101.878 175.653L80.8766 153.446L94.7355 145.697L113.902 165.707L101.878 175.653Z" fill="white"/>
</mask>
<g mask="url(#mask15_20_36)">
<path d="M102.857 142.614C103.917 160.599 86.0382 160.675 86.0382 160.675L87.4768 151.979L98.2881 143.33" fill="#ED707B"/>
</g>
<path fill-rule="evenodd" clip-rule="evenodd" d="M101.878 175.653L80.8766 153.446L94.7355 145.697L113.902 165.707L101.878 175.653V175.653Z" stroke="#190000" stroke-width="1.1" stroke-linecap="round" stroke-linejoin="round"/>
<path d="M74.7539 145.697C79.4565 153.092 86.0384 160.675 86.0384 160.675C91.0326 160.987 101.879 146.423 101.879 146.423C101.879 146.423 83.6057 129.921 71.9525 131.915" fill="#399FE8"/>
<mask id="mask16_20_36" style="mask-type:luminance" maskUnits="userSpaceOnUse" x="71" y="131" width="31" height="30">
<path fill-rule="evenodd" clip-rule="evenodd" d="M74.7539 145.697C79.4565 153.092 86.0384 160.675 86.0384 160.675C91.0326 160.987 101.879 146.423 101.879 146.423C101.879 146.423 83.6057 129.921 71.9525 131.915" fill="white"/>
</mask>
<g mask="url(#mask16_20_36)">
<path d="M97.3895 138.468C99.8385 145.504 81.9393 157.439 81.9393 157.439L97.3895 138.468Z" fill="#399FE8"/>
<path d="M97.3895 138.468C99.8385 145.504 81.9393 157.439 81.9393 157.439" stroke="#190000" stroke-width="1.1" stroke-linecap="round" stroke-linejoin="round"/>
</g>
<path d="M74.7539 145.697C79.4565 153.092 86.0384 160.675 86.0384 160.675C91.0326 160.987 101.879 146.423 101.879 146.423C101.879 146.423 83.6057 129.921 71.9525 131.915" stroke="#190000" stroke-width="1.1" stroke-linecap="round" stroke-linejoin="round"/>
<path d="M60.9816 172.699L54.7352 176.377C54.4411 176.563 54.0811 176.615 53.7467 176.517C53.4123 176.42 53.1359 176.184 52.9877 175.869L46.3687 162.007C46.0615 161.315 46.32 160.502 46.9704 160.115L53.2169 156.438C53.5109 156.251 53.8709 156.2 54.2053 156.297C54.5397 156.394 54.8162 156.631 54.9644 156.946L61.5834 170.808C61.8905 171.5 61.632 172.312 60.9816 172.699Z" fill="#4B4D5C" stroke="#190000" stroke-width="1.1" stroke-linecap="round" stroke-linejoin="round"/>
<path d="M51.9618 164.213L50.0669 165.329C49.8536 165.464 49.5924 165.501 49.3498 165.431C49.1072 165.36 48.9067 165.189 48.7992 164.96L47.875 163.025C47.6522 162.523 47.8398 161.934 48.3116 161.653L50.2064 160.537C50.4198 160.402 50.681 160.365 50.9235 160.435C51.1661 160.506 51.3667 160.677 51.4742 160.906L52.3983 162.841C52.6211 163.343 52.4336 163.932 51.9618 164.213Z" fill="#4B4D5C" stroke="#190000" stroke-width="1.1" stroke-linecap="round" stroke-linejoin="round"/>
<path d="M113.199 165.249C114.961 166.232 116.287 168.084 116.66 170.369C117.397 174.885 114.137 178.986 109.974 178.78L67.1757 176.665C67.1757 176.665 61.3319 177.246 60.585 177.343C59.838 177.439 56.5866 177.101 54.4336 176.762C52.2806 176.423 52.8079 174.391 52.8079 174.391C51.0064 174.391 51.314 172.069 51.314 172.069C47.6232 172.262 48.3701 169.601 48.8095 169.505C49.2489 169.408 56.2351 167.957 57.4653 167.424C58.6956 166.892 56.8502 164.957 56.8502 164.957C51.7094 163.602 53.7306 161.473 54.0821 161.473C54.4336 161.473 57.4214 161.909 57.9926 162.006C58.5638 162.102 65.5939 168.876 66.3847 168.876C66.8457 168.876 83.4916 167.186 97.2982 165.776" fill="#FACCC4"/>
<path d="M113.199 165.249C114.961 166.232 116.287 168.084 116.66 170.369V170.369C117.397 174.885 114.137 178.986 109.974 178.78L67.1757 176.665C67.1757 176.665 61.3319 177.246 60.585 177.343C59.838 177.439 56.5866 177.101 54.4336 176.762C52.2806 176.423 52.8079 174.391 52.8079 174.391C51.0064 174.391 51.314 172.069 51.314 172.069C47.6232 172.262 48.3701 169.601 48.8095 169.505C49.2489 169.408 56.2351 167.957 57.4653 167.424C58.6956 166.892 56.8502 164.957 56.8502 164.957C51.7094 163.602 53.7306 161.473 54.0821 161.473C54.4336 161.473 57.4214 161.909 57.9926 162.006C58.5638 162.102 65.5939 168.876 66.3847 168.876C66.8457 168.876 83.4916 167.186 97.2982 165.776" stroke="#190000" stroke-width="1.1" stroke-linecap="round" stroke-linejoin="round"/>
<ellipse cx="160.43" cy="164.766" rx="1.45844" ry="5.36434" fill="#FACCC4" stroke="#190000" stroke-width="1.1" stroke-linecap="round" stroke-linejoin="round"/>
<path d="M235.41 169.308C235.976 170.935 236.423 172.601 236.748 174.292" stroke="#190000" stroke-width="1.1" stroke-linecap="round" stroke-linejoin="round"/>
<path d="M235.013 169.711C233.889 170.648 233.057 171.889 232.618 173.286" stroke="#190000" stroke-width="1.1" stroke-linecap="round" stroke-linejoin="round"/>
<path d="M44.9018 111.825L44.4993 113.017" stroke="#190000" stroke-width="1.1" stroke-linecap="round" stroke-linejoin="round"/>
<path d="M105.325 170.501C105.17 171.959 104.372 173.271 103.151 174.08" stroke="#E84B23" stroke-width="1.1" stroke-linecap="round" stroke-linejoin="round"/>
<path d="M142.257 125.507C143.197 127.534 143.163 129.878 142.166 131.877" stroke="#BA393C" stroke-width="1.1" stroke-linecap="round" stroke-linejoin="round"/>
<path d="M92.3152 166.513H93.1107" stroke="#E84B23" stroke-width="1.1" stroke-linecap="round" stroke-linejoin="round"/>
<path d="M8.24925 172.9C7.71144 174.43 8.6497 176.313 10.195 176.804" stroke="#E84B23" stroke-width="1.1" stroke-linecap="round" stroke-linejoin="round"/>
<path d="M153.361 159.738C152.803 160.264 152.458 160.976 152.392 161.74" stroke="#BA393C" stroke-width="1.1" stroke-linecap="round" stroke-linejoin="round"/>
<path d="M86.9455 143.039V144.631" stroke="#2976DF" stroke-width="1.1" stroke-linecap="round" stroke-linejoin="round"/>
<path d="M34.6497 159.154C34.4697 160.39 35.0075 161.621 36.0367 162.329" stroke="#2976DF" stroke-width="1.1" stroke-linecap="round" stroke-linejoin="round"/>
<ellipse cx="386.989" cy="239.277" rx="13.1066" ry="13.11" fill="#409159" stroke="#190000" stroke-width="1.1" stroke-linecap="round" stroke-linejoin="round"/>
<ellipse cx="317.086" cy="28.2899" rx="10.7988" ry="10.8016" fill="#D3575E" stroke="#190000" stroke-width="1.1" stroke-linecap="round" stroke-linejoin="round"/>
<path d="M43.8509 59.9611C45.0042 61.0459 46.2456 62.0331 47.5622 62.9124C48.8558 63.7772 50.2079 64.5511 51.6087 65.2286C53.3552 66.0765 55.1667 66.7835 57.0258 67.3428C58.1623 67.6822 58.8513 67.8195 58.8513 67.8195C58.8513 67.8195 58.8606 67.8169 58.8789 67.8116C59.0435 67.7634 59.9362 67.4956 61.2776 66.9687C63.2639 66.1865 65.1897 65.2582 67.0389 64.1914C68.365 63.4274 69.6439 62.5843 70.8688 61.6668C71.7835 60.9808 72.6615 60.2471 73.4992 59.4689C74.542 58.5017 75.5089 57.4559 76.3915 56.3405C77.9319 54.4059 79.1481 52.234 79.9927 49.9096C80.5245 48.4255 80.8925 46.8876 81.0902 45.3235C81.2137 44.3482 81.2751 43.3661 81.2742 42.383C81.2737 41.6631 81.2165 40.9443 81.1032 40.2334C80.841 38.6071 80.3083 37.0363 79.5273 35.586C78.8818 34.3802 78.0743 33.2685 77.1273 32.2818C76.4309 31.5559 75.658 30.9076 74.8219 30.3484C73.6248 29.5434 72.2955 28.9551 70.8948 28.6104C70.0176 28.3976 69.1182 28.29 68.2155 28.2898C64.803 28.2815 61.5249 29.6203 59.0935 32.0154C59.0117 32.0959 58.9309 32.1774 58.8512 32.26C56.4012 29.7152 53.0187 28.2811 49.4867 28.2898C48.7616 28.2899 48.0382 28.3594 47.3264 28.4974C45.9846 28.7617 44.6974 29.2523 43.5199 29.9482C42.4361 30.5876 41.4452 31.3728 40.5749 32.2818C39.6189 33.2778 38.8051 34.4012 38.1566 35.6201C37.3718 37.0861 36.8408 38.6744 36.5858 40.3177C36.4812 41.0012 36.4284 41.6916 36.428 42.383C36.4266 43.4718 36.4899 44.5597 36.6175 45.6409C36.8058 47.2504 37.1564 48.8366 37.6639 50.3755C38.4413 52.7187 39.5985 54.9182 41.0892 56.886C41.9225 57.9862 42.8463 59.0149 43.8509 59.9611Z" fill="#D3575E"/>
<mask id="mask17_20_36" style="mask-type:luminance" maskUnits="userSpaceOnUse" x="36" y="28" width="46" height="40">
<path fill-rule="evenodd" clip-rule="evenodd" d="M43.8509 59.9611C45.0042 61.0459 46.2456 62.0331 47.5622 62.9124C48.8558 63.7772 50.2079 64.5511 51.6087 65.2286C53.3552 66.0765 55.1667 66.7835 57.0258 67.3428C58.1623 67.6822 58.8513 67.8195 58.8513 67.8195C58.8513 67.8195 58.8606 67.8169 58.8789 67.8116C59.0435 67.7634 59.9362 67.4956 61.2776 66.9687C63.2639 66.1865 65.1897 65.2582 67.0389 64.1914C68.365 63.4274 69.6439 62.5843 70.8688 61.6668C71.7835 60.9808 72.6615 60.2471 73.4992 59.4689C74.542 58.5017 75.5089 57.4559 76.3915 56.3405C77.9319 54.4059 79.1481 52.234 79.9927 49.9096C80.5245 48.4255 80.8925 46.8876 81.0902 45.3235C81.2137 44.3482 81.2751 43.3661 81.2742 42.383C81.2737 41.6631 81.2165 40.9443 81.1032 40.2334C80.841 38.6071 80.3083 37.0363 79.5273 35.586C78.8818 34.3802 78.0743 33.2685 77.1273 32.2818C76.4309 31.5559 75.658 30.9076 74.8219 30.3484C73.6248 29.5434 72.2955 28.9551 70.8948 28.6104C70.0176 28.3976 69.1182 28.29 68.2155 28.2898C64.803 28.2815 61.5249 29.6203 59.0935 32.0154C59.0117 32.0959 58.9309 32.1774 58.8512 32.26C56.4012 29.7152 53.0187 28.2811 49.4867 28.2898C48.7616 28.2899 48.0382 28.3594 47.3264 28.4974C45.9846 28.7617 44.6974 29.2523 43.5199 29.9482C42.4361 30.5876 41.4452 31.3728 40.5749 32.2818C39.6189 33.2778 38.8051 34.4012 38.1566 35.6201C37.3718 37.0861 36.8408 38.6744 36.5858 40.3177C36.4812 41.0012 36.4284 41.6916 36.428 42.383C36.4266 43.4718 36.4899 44.5597 36.6175 45.6409C36.8058 47.2504 37.1564 48.8366 37.6639 50.3755C38.4413 52.7187 39.5985 54.9182 41.0892 56.886C41.9225 57.9862 42.8463 59.0149 43.8509 59.9611Z" fill="white"/>
</mask>
<g mask="url(#mask17_20_36)">
<path d="M60.7412 27.0442C84.8606 24.5855 76.6612 63.5392 57.0256 67.3428C37.39 71.1464 71.8023 74.3734 71.8023 74.3734L100.377 28.2898H87.4722" fill="#BA424D"/>
</g>
<path fill-rule="evenodd" clip-rule="evenodd" d="M43.8509 59.9611C45.0042 61.0459 46.2456 62.0331 47.5622 62.9124C48.8558 63.7772 50.2079 64.5511 51.6087 65.2286C53.3552 66.0765 55.1667 66.7835 57.0258 67.3428C58.1623 67.6822 58.8513 67.8195 58.8513 67.8195C58.8513 67.8195 58.8606 67.8169 58.8789 67.8116C59.0435 67.7634 59.9362 67.4956 61.2776 66.9687C63.2639 66.1865 65.1897 65.2582 67.0389 64.1914C68.365 63.4274 69.6439 62.5843 70.8688 61.6668C71.7835 60.9808 72.6615 60.2471 73.4992 59.4689C74.542 58.5017 75.5089 57.4559 76.3915 56.3405C77.9319 54.4059 79.1481 52.234 79.9927 49.9096C80.5245 48.4255 80.8925 46.8876 81.0902 45.3235C81.2137 44.3482 81.2751 43.3661 81.2742 42.383C81.2737 41.6631 81.2165 40.9443 81.1032 40.2334C80.841 38.6071 80.3083 37.0363 79.5273 35.586C78.8818 34.3802 78.0743 33.2685 77.1273 32.2818C76.4309 31.5559 75.658 30.9076 74.8219 30.3484C73.6248 29.5434 72.2955 28.9551 70.8948 28.6104C70.0176 28.3976 69.1182 28.29 68.2155 28.2898C64.803 28.2815 61.5249 29.6203 59.0935 32.0154C59.0117 32.0959 58.9309 32.1774 58.8512 32.26C56.4012 29.7152 53.0187 28.2811 49.4867 28.2898C48.7616 28.2899 48.0382 28.3594 47.3264 28.4974C45.9846 28.7617 44.6974 29.2523 43.5199 29.9482C42.4361 30.5876 41.4452 31.3728 40.5749 32.2818C39.6189 33.2778 38.8051 34.4012 38.1566 35.6201C37.3718 37.0861 36.8408 38.6744 36.5858 40.3177C36.4812 41.0012 36.4284 41.6916 36.428 42.383C36.4266 43.4718 36.4899 44.5597 36.6175 45.6409C36.8058 47.2504 37.1564 48.8366 37.6639 50.3755C38.4413 52.7187 39.5985 54.9182 41.0892 56.886C41.9225 57.9862 42.8463 59.0149 43.8509 59.9611V59.9611Z" stroke="#190000" stroke-width="1.1" stroke-linecap="round" stroke-linejoin="round"/>
<path d="M49.5349 38.2654C49.2413 38.9247 49.2345 39.6762 49.5161 40.3407" stroke="#90282A" stroke-width="1.1" stroke-linecap="round" stroke-linejoin="round"/>
<path d="M67.3622 55.3638C66.7319 56.6356 65.6088 57.5943 64.254 58.017" stroke="#90282A" stroke-width="1.1" stroke-linecap="round" stroke-linejoin="round"/>
<path d="M300.753 216.693L309.353 224.969C310.259 225.841 310.808 226.939 310.595 228.227L308.601 240.329C308.418 241.38 308.743 242.456 309.478 243.23C310.535 244.371 312.231 244.652 313.6 243.913L320.397 240.282L324.417 238.134C326.297 237.13 328.003 238.318 329.663 239.177L338.499 243.751C341.024 245.057 343.95 242.901 343.451 240.102L343.181 238.583L341.614 229.789C341.309 228.08 340.878 226.356 342.266 224.984L344.373 222.903L350.991 216.366C351.872 215.506 352.223 214.239 351.91 213.048C351.596 211.858 350.668 210.928 349.478 210.613C349.338 210.576 349.196 210.547 349.053 210.528L342.701 209.646L336.906 208.843C335.788 208.688 334.818 207.992 334.312 206.983L329.132 196.654L328.814 196.019C328.234 194.846 327.035 194.107 325.726 194.115C324.418 194.124 323.229 194.879 322.664 196.06L318.602 204.43L317.308 207.094C316.456 208.85 314.685 208.995 312.969 209.256L304.14 210.598L302.615 210.83C299.805 211.257 298.705 214.721 300.753 216.693Z" fill="#FBD164"/>
<mask id="mask18_20_36" style="mask-type:luminance" maskUnits="userSpaceOnUse" x="299" y="194" width="54" height="51">
<path fill-rule="evenodd" clip-rule="evenodd" d="M300.753 216.693L309.353 224.969C310.259 225.841 310.808 226.939 310.595 228.227L308.601 240.329C308.418 241.38 308.743 242.456 309.478 243.23C310.535 244.371 312.231 244.652 313.6 243.913L320.397 240.282L324.417 238.134C326.297 237.13 328.003 238.318 329.663 239.177L338.499 243.751C341.024 245.057 343.95 242.901 343.451 240.102L343.181 238.583L341.614 229.789C341.309 228.08 340.878 226.356 342.266 224.984L344.373 222.903L350.991 216.366C351.872 215.506 352.223 214.239 351.91 213.048C351.596 211.858 350.668 210.928 349.478 210.613C349.338 210.576 349.196 210.547 349.053 210.528L342.701 209.646L336.906 208.843C335.788 208.688 334.818 207.992 334.312 206.983L329.132 196.654L328.814 196.019C328.234 194.846 327.035 194.107 325.726 194.115C324.418 194.124 323.229 194.879 322.664 196.06L318.602 204.43L317.308 207.094C316.456 208.85 314.685 208.995 312.969 209.256L304.14 210.598L302.615 210.83C299.805 211.257 298.705 214.721 300.753 216.693Z" fill="white"/>
</mask>
<g mask="url(#mask18_20_36)">
<path d="M307.015 253.135L324.417 238.134C324.417 238.134 327.152 228.664 338.5 243.75C349.847 258.837 335.21 253.289 335.21 253.289" fill="#F9B964"/>
<path d="M299.698 210.138C320.265 209.059 325.063 210.646 322.664 196.059C320.265 181.473 299.698 195.806 299.698 195.806" fill="#F9B964"/>
</g>
<path fill-rule="evenodd" clip-rule="evenodd" d="M300.753 216.693L309.353 224.969C310.259 225.841 310.808 226.939 310.595 228.227L308.601 240.329C308.418 241.38 308.743 242.456 309.478 243.23C310.535 244.371 312.231 244.652 313.6 243.913L320.397 240.282L324.417 238.134C326.297 237.13 328.003 238.318 329.663 239.177L338.499 243.751C341.024 245.057 343.95 242.901 343.451 240.102L343.181 238.583L341.614 229.789C341.309 228.08 340.878 226.356 342.266 224.984L344.373 222.903L350.991 216.366C351.872 215.506 352.223 214.239 351.91 213.048C351.596 211.858 350.668 210.928 349.478 210.613C349.338 210.576 349.196 210.547 349.053 210.528L342.701 209.646L336.906 208.843C335.788 208.688 334.818 207.992 334.312 206.983L329.132 196.654L328.814 196.019C328.234 194.846 327.035 194.107 325.726 194.115C324.418 194.124 323.229 194.879 322.664 196.06L318.602 204.43L317.308 207.094C316.456 208.85 314.685 208.995 312.969 209.256L304.14 210.598L302.615 210.83C299.805 211.257 298.705 214.721 300.753 216.693Z" stroke="#190000" stroke-width="1.1" stroke-linecap="round" stroke-linejoin="round"/>
<path d="M333.482 222.438L331.3 224.881" stroke="#D89D35" stroke-width="1.1" stroke-linecap="round" stroke-linejoin="round"/>
</svg>
