<svg width="806" height="48" viewBox="0 0 806 48" fill="none" xmlns="http://www.w3.org/2000/svg">
<path d="M12.36 15.32C12.36 22.936 51.656 11.48 51.656 32.92C51.656 38.104 49.672 46.936 30.088 46.936H21.896C2.312 46.936 0.328 36.184 0.328 31H12.424C12.424 32.344 13.256 35.48 18.632 35.48H35.272C38.664 35.48 39.56 34.264 39.56 32.92C39.56 24.728 0.2 36.824 0.2 15.32C0.2 10.072 2.184 1.24 21.832 1.24H29.96C49.608 1.24 51.592 11.992 51.592 17.24H39.432C39.432 15.832 38.664 12.76 33.224 12.76H16.584C13.064 12.76 12.36 13.912 12.36 15.32ZM76.375 12.76C69.911 12.76 68.375 18.328 68.375 24.088C68.375 29.912 69.911 35.48 76.375 35.48H93.015C97.815 35.48 99.799 33.048 100.695 28.248H113.559C111.575 45.336 97.303 46.936 89.687 46.936H79.703C71.511 46.936 55.575 45.144 55.575 24.088C55.575 3.096 71.511 1.24 79.703 1.24H89.687C97.303 1.24 111.575 2.84 113.559 19.928H100.695C100.119 15.512 97.815 12.76 93.015 12.76H76.375ZM152.812 1.56C161.004 1.56 176.876 3.352 176.876 24.344V46.936H164.78V35.672H130.796V46.936H118.7V24.344C118.7 3.352 134.636 1.56 142.828 1.56H152.812ZM130.796 24.984H164.78V23.704C164.78 17.944 163.244 13.016 156.78 13.016H138.86C132.396 13.016 130.796 17.944 130.796 23.704V24.984ZM216.415 0.599998C226.463 0.599998 241.439 5.848 241.439 24.088V46.936H228.703V25.368C228.703 16.408 224.031 12.76 214.111 12.76H213.215C199.519 12.76 195.359 22.936 195.359 31V46.936H183.263V1.24H195.359V8.536C201.247 2.648 210.079 0.599998 216.415 0.599998ZM316.28 6.744V1.24H328.44V24.088C328.44 45.144 312.504 46.936 304.312 46.936H289.656C278.968 46.936 271.544 41.944 270.2 34.136L282.36 30.744C282.36 30.744 283.064 35.48 290.232 35.48H308.28C313.848 35.48 315.768 31.768 316.216 26.968C311.992 28.632 307.576 28.952 304.312 28.952H294.328C286.136 28.952 270.2 27.096 270.2 6.104V1.24H282.36V6.744C282.36 12.504 283.896 17.432 290.36 17.432H308.28C314.744 17.432 316.28 12.504 316.28 6.744ZM367.623 1.24C375.879 1.24 391.751 3.096 391.751 24.088C391.751 45.144 375.879 46.936 367.623 46.936H357.703C349.447 46.936 333.575 45.144 333.575 24.088C333.575 3.096 349.447 1.24 357.703 1.24H367.623ZM370.951 35.48C377.415 35.48 379.015 29.912 379.015 24.088C379.015 18.328 377.415 12.76 370.951 12.76H354.375C347.911 12.76 346.311 18.328 346.311 24.088C346.311 29.912 347.911 35.48 354.375 35.48H370.951ZM421.224 47.576C411.176 47.576 396.2 42.328 396.2 24.088V1.24H408.936V22.808C408.936 31.832 413.608 35.48 423.528 35.48H424.424C438.12 35.48 442.28 25.304 442.28 17.24V1.24H454.376V46.936H442.28V39.704C436.392 45.528 427.56 47.576 421.224 47.576ZM515.291 16.408C515.291 29.4 503.067 32.216 494.811 32.216H489.051C493.403 33.624 500.443 34.84 511.835 34.84H515.291V46.936C503.131 46.936 485.147 44.056 478.811 32.216H472.859V46.936H460.763V1.24H496.667C504.859 1.24 515.291 4.248 515.291 16.408ZM472.859 12.76V21.976H495.259C500.187 21.976 502.491 20.12 502.491 17.304C502.491 14.424 500.955 12.76 497.051 12.76H472.859ZM602.251 14.232C602.251 17.752 600.843 21.4 597.643 24.088C600.843 26.84 602.251 30.488 602.251 33.944C602.251 43.48 595.275 46.936 587.211 46.936H544.075V1.24H587.211C595.275 1.24 602.251 4.696 602.251 14.232ZM556.171 19.928H585.931C588.555 19.928 590.155 18.712 590.155 16.216C590.155 13.976 588.491 12.568 586.187 12.568H556.171V19.928ZM585.931 28.312H556.171V35.608H586.187C588.491 35.608 590.155 34.264 590.155 31.96C590.155 29.464 588.555 28.312 585.931 28.312ZM606.075 46.936V38.04H616.315V10.2H606.075V1.24H638.715V10.2H628.475V38.04H638.715V46.936H606.075ZM657.298 35.608H694.866V46.936H645.138V1.24H657.298V35.608ZM713.423 35.608H750.991V46.936H701.263V1.24H713.423V35.608ZM765.735 15.32C765.735 22.936 805.031 11.48 805.031 32.92C805.031 38.104 803.047 46.936 783.463 46.936H775.271C755.687 46.936 753.703 36.184 753.703 31H765.799C765.799 32.344 766.631 35.48 772.007 35.48H788.647C792.039 35.48 792.935 34.264 792.935 32.92C792.935 24.728 753.575 36.824 753.575 15.32C753.575 10.072 755.559 1.24 775.207 1.24H783.335C802.983 1.24 804.967 11.992 804.967 17.24H792.807C792.807 15.832 792.039 12.76 786.599 12.76H769.959C766.439 12.76 765.735 13.912 765.735 15.32Z" fill="#E0447D"/>
</svg>
