<svg width="930" height="126" viewBox="0 0 930 126" fill="none" xmlns="http://www.w3.org/2000/svg">
<path d="M0.2 1.24H49.928V12.568H12.296V18.904H49.928V29.592H12.296V35.608H49.928V46.936H0.2V1.24ZM95.2005 1.24H111.713L91.0405 24.088L111.713 46.936H95.2005L82.1445 31.512L69.0885 46.936H52.5125L73.1845 24.088L52.5125 1.24H69.0885L82.1445 16.664L95.2005 1.24ZM148.279 1.24C156.535 1.24 170.103 2.52 170.103 18.328C170.103 34.136 156.535 35.416 148.279 35.416H127.735V46.936H115.575V1.24H148.279ZM149.303 23.96C155.767 23.96 157.367 21.912 157.367 18.328C157.367 14.744 155.767 12.76 149.303 12.76H127.735V23.96H149.303ZM211.454 1.24C222.718 1.24 232.126 8.152 232.126 23.32C232.126 26.136 231.934 28.312 231.934 28.312H187.07C187.838 32.344 189.886 35.48 194.75 35.48H211.39C216.19 35.48 218.046 34.456 219.07 31.64H231.934C229.758 45.016 215.678 46.936 208.062 46.936H198.078C189.886 46.936 173.95 45.144 173.95 24.088C173.95 3.096 189.886 1.24 198.078 1.24H211.454ZM194.75 12.76C189.886 12.76 187.838 15.896 187.07 19.928H219.07C219.006 14.744 216.19 12.76 211.39 12.76H194.75ZM270.415 0.599998C280.463 0.599998 295.439 5.848 295.439 24.088V46.936H282.703V25.368C282.703 16.408 278.031 12.76 268.111 12.76H267.215C253.519 12.76 249.359 22.936 249.359 31V46.936H237.263V1.24H249.359V8.536C255.247 2.648 264.079 0.599998 270.415 0.599998ZM360.065 24.088C360.065 45.144 344.129 46.936 335.937 46.936H301.825V1.24H335.937C344.129 1.24 360.065 3.096 360.065 24.088ZM339.265 35.48C345.729 35.48 347.265 29.912 347.265 24.088C347.265 18.328 345.729 12.76 339.265 12.76H313.985V35.48H339.265ZM361.325 46.936V38.04H371.565V10.2H361.325V1.24H393.965V10.2H383.725V38.04H393.965V46.936H361.325ZM399.138 12.76V1.24H445.154V12.76H428.002V46.936H415.906V12.76H399.138ZM476.599 47.576C466.551 47.576 451.575 42.328 451.575 24.088V1.24H464.311V22.808C464.311 31.832 468.983 35.48 478.903 35.48H479.799C493.495 35.48 497.655 25.304 497.655 17.24V1.24H509.751V46.936H497.655V39.704C491.767 45.528 482.935 47.576 476.599 47.576ZM570.666 16.408C570.666 29.4 558.442 32.216 550.186 32.216H544.426C548.778 33.624 555.818 34.84 567.21 34.84H570.666V46.936C558.506 46.936 540.522 44.056 534.186 32.216H528.234V46.936H516.138V1.24H552.042C560.234 1.24 570.666 4.248 570.666 16.408ZM528.234 12.76V21.976H550.634C555.562 21.976 557.866 20.12 557.866 17.304C557.866 14.424 556.33 12.76 552.426 12.76H528.234ZM612.017 1.24C623.281 1.24 632.689 8.152 632.689 23.32C632.689 26.136 632.497 28.312 632.497 28.312H587.633C588.401 32.344 590.449 35.48 595.313 35.48H611.953C616.753 35.48 618.609 34.456 619.633 31.64H632.497C630.321 45.016 616.241 46.936 608.625 46.936H598.641C590.449 46.936 574.513 45.144 574.513 24.088C574.513 3.096 590.449 1.24 598.641 1.24H612.017ZM595.313 12.76C590.449 12.76 588.401 15.896 587.633 19.928H619.633C619.569 14.744 616.753 12.76 611.953 12.76H595.313ZM673.61 35.608H711.178V46.936H661.45V1.24H673.61V35.608ZM716.325 46.936V38.04H726.565V10.2H716.325V1.24H748.965V10.2H738.725V38.04H748.965V46.936H716.325ZM818.748 0.599998C828.796 0.599998 840.316 3.096 840.316 24.088V46.936H827.516V24.088C827.516 18.328 827.004 12.76 818.876 12.76H817.02C809.276 12.76 803.9 17.496 803.9 27.096V46.936H791.164V24.088C791.164 18.328 790.652 12.76 782.46 12.76H779.324C771.58 12.76 767.484 18.264 767.484 24.088V46.936H755.388V1.24H767.484V6.744C771.9 2.264 777.788 0.599998 782.332 0.599998C789.5 0.599998 797.372 1.88 801.34 10.136C805.692 3.032 813.244 0.599998 818.748 0.599998ZM846.075 46.936V38.04H856.315V10.2H846.075V1.24H878.715V10.2H868.475V38.04H878.715V46.936H846.075ZM883.888 12.76V1.24H929.904V12.76H912.752V46.936H900.656V12.76H883.888ZM74.76 80.24H88.392L69.832 125.936H55.112L44.296 99.248L33.48 125.936H18.76L0.2 80.24H13.768L26.888 112.496L38.408 80.24H50.184L61.704 112.496L74.76 80.24ZM121.187 80.56C129.379 80.56 145.251 82.352 145.251 103.344V125.936H133.155V114.672H99.171V125.936H87.075V103.344C87.075 82.352 103.011 80.56 111.203 80.56H121.187ZM99.171 103.984H133.155V102.704C133.155 96.944 131.619 92.016 125.155 92.016H107.235C100.771 92.016 99.171 96.944 99.171 102.704V103.984ZM206.166 95.408C206.166 108.4 193.942 111.216 185.686 111.216H179.926C184.278 112.624 191.318 113.84 202.71 113.84H206.166V125.936C194.006 125.936 176.022 123.056 169.686 111.216H163.734V125.936H151.638V80.24H187.542C195.734 80.24 206.166 83.248 206.166 95.408ZM163.734 91.76V100.976H186.134C191.062 100.976 193.366 99.12 193.366 96.304C193.366 93.424 191.83 91.76 187.926 91.76H163.734ZM245.727 79.6C255.775 79.6 270.751 84.848 270.751 103.088V125.936H258.015V104.368C258.015 95.408 253.343 91.76 243.423 91.76H242.527C228.831 91.76 224.671 101.936 224.671 110V125.936H212.575V80.24H224.671V87.536C230.559 81.648 239.391 79.6 245.727 79.6ZM276.513 125.936V117.04H286.753V89.2H276.513V80.24H309.153V89.2H298.913V117.04H309.153V125.936H276.513ZM348.727 79.6C358.775 79.6 373.751 84.848 373.751 103.088V125.936H361.015V104.368C361.015 95.408 356.343 91.76 346.423 91.76H345.527C331.831 91.76 327.671 101.936 327.671 110V125.936H315.575V80.24H327.671V87.536C333.559 81.648 342.391 79.6 348.727 79.6ZM399.688 91.76C393.224 91.76 391.624 97.328 391.624 103.088C391.624 108.912 393.224 114.48 399.688 114.48H416.584C420.552 114.48 423.24 112.176 423.816 109.168H401.864V100.72H436.68V125.936H427.976L426.504 122.608C421.576 125.488 415.688 125.936 411.656 125.936H403.016C394.76 125.936 378.888 124.144 378.888 103.088C378.888 82.096 394.76 80.24 403.016 80.24H412.936C420.424 80.24 434.184 81.776 436.68 97.712H423.688C422.984 94.064 420.616 91.76 416.328 91.76H399.688Z" fill="#E0447D"/>
</svg>
