<svg width="851" height="47" viewBox="0 0 851 47" fill="none" xmlns="http://www.w3.org/2000/svg">
<path d="M0.2 1.24H49.928V12.568H12.296V18.904H49.928V29.592H12.296V35.608H49.928V46.936H0.2V1.24ZM95.2005 1.24H111.713L91.0405 24.088L111.713 46.936H95.2005L82.1445 31.512L69.0885 46.936H52.5125L73.1845 24.088L52.5125 1.24H69.0885L82.1445 16.664L95.2005 1.24ZM148.279 1.24C156.535 1.24 170.103 2.52 170.103 18.328C170.103 34.136 156.535 35.416 148.279 35.416H127.735V46.936H115.575V1.24H148.279ZM149.303 23.96C155.767 23.96 157.367 21.912 157.367 18.328C157.367 14.744 155.767 12.76 149.303 12.76H127.735V23.96H149.303ZM211.454 1.24C222.718 1.24 232.126 8.152 232.126 23.32C232.126 26.136 231.934 28.312 231.934 28.312H187.07C187.838 32.344 189.886 35.48 194.75 35.48H211.39C216.19 35.48 218.046 34.456 219.07 31.64H231.934C229.758 45.016 215.678 46.936 208.062 46.936H198.078C189.886 46.936 173.95 45.144 173.95 24.088C173.95 3.096 189.886 1.24 198.078 1.24H211.454ZM194.75 12.76C189.886 12.76 187.838 15.896 187.07 19.928H219.07C219.006 14.744 216.19 12.76 211.39 12.76H194.75ZM270.415 0.599998C280.463 0.599998 295.439 5.848 295.439 24.088V46.936H282.703V25.368C282.703 16.408 278.031 12.76 268.111 12.76H267.215C253.519 12.76 249.359 22.936 249.359 31V46.936H237.263V1.24H249.359V8.536C255.247 2.648 264.079 0.599998 270.415 0.599998ZM312.735 15.32C312.735 22.936 352.031 11.48 352.031 32.92C352.031 38.104 350.047 46.936 330.463 46.936H322.271C302.687 46.936 300.703 36.184 300.703 31H312.799C312.799 32.344 313.631 35.48 319.007 35.48H335.647C339.039 35.48 339.935 34.264 339.935 32.92C339.935 24.728 300.575 36.824 300.575 15.32C300.575 10.072 302.559 1.24 322.207 1.24H330.335C349.983 1.24 351.967 11.992 351.967 17.24H339.807C339.807 15.832 339.039 12.76 333.599 12.76H316.959C313.439 12.76 312.735 13.912 312.735 15.32ZM393.392 1.24C404.656 1.24 414.064 8.152 414.064 23.32C414.064 26.136 413.872 28.312 413.872 28.312H369.008C369.776 32.344 371.824 35.48 376.688 35.48H393.328C398.128 35.48 399.984 34.456 401.008 31.64H413.872C411.696 45.016 397.616 46.936 390 46.936H380.016C371.824 46.936 355.888 45.144 355.888 24.088C355.888 3.096 371.824 1.24 380.016 1.24H393.392ZM376.688 12.76C371.824 12.76 369.776 15.896 369.008 19.928H401.008C400.944 14.744 398.128 12.76 393.328 12.76H376.688ZM442.825 12.76V1.24H488.841V12.76H471.689V46.936H459.593V12.76H442.825ZM548.541 16.408C548.541 29.4 536.317 32.216 528.061 32.216H522.301C526.653 33.624 533.693 34.84 545.085 34.84H548.541V46.936C536.381 46.936 518.397 44.056 512.061 32.216H506.109V46.936H494.013V1.24H529.917C538.109 1.24 548.541 4.248 548.541 16.408ZM506.109 12.76V21.976H528.509C533.437 21.976 535.741 20.12 535.741 17.304C535.741 14.424 534.205 12.76 530.301 12.76H506.109ZM589.062 1.56C597.254 1.56 613.126 3.352 613.126 24.344V46.936H601.03V35.672H567.046V46.936H554.95V24.344C554.95 3.352 570.886 1.56 579.078 1.56H589.062ZM567.046 24.984H601.03V23.704C601.03 17.944 599.494 13.016 593.03 13.016H575.11C568.646 13.016 567.046 17.944 567.046 23.704V24.984ZM639.063 12.76C632.599 12.76 631.062 18.328 631.062 24.088C631.062 29.912 632.599 35.48 639.063 35.48H655.703C660.503 35.48 662.487 33.048 663.383 28.248H676.247C674.263 45.336 659.991 46.936 652.375 46.936H642.391C634.199 46.936 618.263 45.144 618.263 24.088C618.263 3.096 634.199 1.24 642.391 1.24H652.375C659.991 1.24 674.263 2.84 676.247 19.928H663.383C662.807 15.512 660.503 12.76 655.703 12.76H639.063ZM717.868 1.24H736.364L712.876 20.248L736.364 46.936H719.148L703.02 28.184L693.484 35.928V46.936H681.388V1.24H693.484V20.952L717.868 1.24ZM770.642 1.24C781.906 1.24 791.314 8.152 791.314 23.32C791.314 26.136 791.122 28.312 791.122 28.312H746.258C747.026 32.344 749.074 35.48 753.938 35.48H770.578C775.378 35.48 777.234 34.456 778.258 31.64H791.122C788.946 45.016 774.866 46.936 767.25 46.936H757.266C749.074 46.936 733.138 45.144 733.138 24.088C733.138 3.096 749.074 1.24 757.266 1.24H770.642ZM753.938 12.76C749.074 12.76 747.026 15.896 746.258 19.928H778.258C778.194 14.744 775.378 12.76 770.578 12.76H753.938ZM850.978 16.408C850.978 29.4 838.754 32.216 830.498 32.216H824.738C829.09 33.624 836.13 34.84 847.522 34.84H850.978V46.936C838.818 46.936 820.834 44.056 814.498 32.216H808.546V46.936H796.45V1.24H832.354C840.546 1.24 850.978 4.248 850.978 16.408ZM808.546 12.76V21.976H830.946C835.874 21.976 838.178 20.12 838.178 17.304C838.178 14.424 836.642 12.76 832.738 12.76H808.546Z" fill="#E0447D"/>
</svg>
