<svg width="987" height="233" viewBox="0 0 987 233" fill="none" xmlns="http://www.w3.org/2000/svg">
<path d="M0 0H108.273V25.0378H26.4761V39.042H108.273V65.4944H26.4761V101H0V0Z" fill="white"/>
<path d="M122.201 101V0H148.538V101H122.201Z" fill="white"/>
<path d="M262.812 72.0014V0H289.149V101H250.131L188.818 28.9986V101H162.482V0H201.499L262.812 72.0014Z" fill="white"/>
<path d="M344.918 0H376.968L426.994 101H397.452L387.28 79.0742H334.467L324.295 101H294.753L344.918 0ZM345.615 55.1681H376.132L360.943 22.2087L345.615 55.1681Z" fill="white"/>
<path d="M532.934 72.0014V0H559.271V101H520.253L458.94 28.9986V101H432.604V0H471.621L532.934 72.0014Z" fill="white"/>
<path d="M615.742 25.4622C601.668 25.4622 598.324 37.7689 598.324 50.5C598.324 63.3725 601.668 75.6793 615.742 75.6793H651.973C662.424 75.6793 666.744 70.3039 668.694 59.6947H696.703C692.384 97.4636 661.309 101 644.727 101H622.988C605.152 101 570.454 97.0392 570.454 50.5C570.454 4.10224 605.152 0 622.988 0H644.727C661.309 0 692.384 3.53641 696.703 41.3053H668.694C667.44 31.5448 662.424 25.4622 651.973 25.4622H615.742Z" fill="white"/>
<path d="M707.897 101V0H734.234V101H707.897Z" fill="white"/>
<path d="M790.041 0H822.091L872.117 101H842.575L832.403 79.0742H779.59L769.418 101H739.876L790.041 0ZM790.738 55.1681H821.255L806.066 22.2087L790.738 55.1681Z" fill="white"/>
<path d="M904.203 75.9622H986V101H877.727V0H904.203V75.9622Z" fill="white"/>
<path d="M0 127H115.661V153.277H28.2827V167.975H115.661V195.737H28.2827V233H0V127Z" fill="#E0447D"/>
<path d="M257.366 166.639C257.366 189.947 244.564 199.597 230.423 203.605L262.724 233H224.171L196.186 206.277H158.823V233H130.54V127H206.606C225.808 127 257.366 129.969 257.366 166.639ZM158.823 153.723V179.703H208.987C224.022 179.703 227.743 174.952 227.743 166.639C227.743 158.325 224.022 153.723 208.987 153.723H158.823Z" fill="#E0447D"/>
<path d="M268.785 127H384.446V153.277H296.918V167.975H384.446V192.768H296.918V206.723H384.446V233H268.785V127Z" fill="#E0447D"/>
<path d="M399.325 127H514.986V153.277H427.458V167.975H514.986V192.768H427.458V206.723H514.986V233H399.325V127Z" fill="#E0447D"/>
<path d="M665.324 180C665.324 228.843 628.259 233 609.205 233H529.865V127H609.205C628.259 127 665.324 131.305 665.324 180ZM616.946 206.426C631.98 206.426 635.553 193.51 635.553 180C635.553 166.639 631.98 153.723 616.946 153.723H558.147V206.426H616.946Z" fill="#E0447D"/>
<path d="M753.406 127C772.609 127 809.525 131.305 809.525 180C809.525 228.843 772.609 233 753.406 233H730.333C711.131 233 674.214 228.843 674.214 180C674.214 131.305 711.131 127 730.333 127H753.406ZM761.147 206.426C776.181 206.426 779.902 193.51 779.902 180C779.902 166.639 776.181 153.723 761.147 153.723H722.593C707.558 153.723 703.837 166.639 703.837 180C703.837 193.51 707.558 206.426 722.593 206.426H761.147Z" fill="#E0447D"/>
<path d="M904.236 203.011L941.152 127H987V233H958.717V156.247L922.247 233H886.075L849.606 156.247V233H821.472V127H867.171L904.236 203.011Z" fill="#E0447D"/>
</svg>
