<svg width="43" height="43" viewBox="0 0 43 43" fill="none" xmlns="http://www.w3.org/2000/svg">
<path d="M21.5 0C17.2477 0 13.0909 1.26095 9.55526 3.6234C6.01963 5.98584 3.26387 9.34367 1.6366 13.2723C0.00931476 17.2009 -0.416455 21.5238 0.413125 25.6944C1.24271 29.8651 3.2904 33.6959 6.2972 36.7025C9.30403 39.7094 13.135 41.7571 17.3056 42.5869C21.4762 43.4164 25.7991 42.9906 29.7278 41.3636C33.6564 39.736 37.014 36.9803 39.3766 33.4447C41.7391 29.9091 43 25.7522 43 21.4999C43 15.7978 40.7349 10.3292 36.7028 6.29719C32.6707 2.26516 27.2022 0 21.5 0ZM34.707 24.642C34.707 25.072 32.7659 25.1335 32.7659 25.5635C32.7659 25.9934 34.6857 26.577 34.6857 27.1699C34.6857 27.8946 30.7296 28.0021 30.7296 28.7271C30.7296 29.5011 33.7303 29.2614 33.7303 30.1C33.7303 31.0889 26.1932 30.6282 26.1932 31.6572C26.1932 32.0502 27.1577 32.2131 28.3647 32.3421C29.0281 32.4157 28.8836 32.7413 28.5061 32.9565C26.3959 34.2438 23.9719 34.9251 21.5 34.9251C19.0282 34.9251 16.6041 34.2438 14.494 32.9565C14.1193 32.7261 13.9719 32.4005 14.6353 32.3421C15.8424 32.2131 16.8099 32.035 16.8099 31.6572C16.8099 30.6282 9.26956 31.0889 9.26956 30.1C9.26956 29.2614 12.2735 29.4857 12.2735 28.7271C12.2735 28.0021 8.3144 27.8946 8.3144 27.1699C8.3144 26.577 10.2371 26.0027 10.2371 25.5635C10.2371 25.1242 8.29289 25.0751 8.29289 24.642C8.29289 24.209 9.71191 23.9294 9.71191 23.6223C9.71191 23.0418 8.06251 24.0984 8.06251 21.4999C8.06251 17.9361 9.47831 14.5182 11.9983 11.9982C14.5183 9.47822 17.9362 8.06247 21.5 8.06247C25.0638 8.06247 28.4818 9.47822 31.0018 11.9982C33.5218 14.5182 34.9374 17.9361 34.9374 21.4999C34.9374 24.0984 33.2882 23.0357 33.2882 23.6223C33.2882 23.9294 34.707 24.1782 34.707 24.642Z" fill="#E0447D"/>
</svg>
