<svg width="893" height="86" viewBox="0 0 893 86" fill="none" xmlns="http://www.w3.org/2000/svg">
<path d="M3.2 1.24H52.928V12.568H15.296V18.904H52.928V29.592H15.296V35.608H52.928V46.936H3.2V1.24ZM98.2005 1.24H114.713L94.0405 24.088L114.713 46.936H98.2005L85.1445 31.512L72.0885 46.936H55.5125L76.1845 24.088L55.5125 1.24H72.0885L85.1445 16.664L98.2005 1.24ZM151.279 1.24C159.535 1.24 173.103 2.52 173.103 18.328C173.103 34.136 159.535 35.416 151.279 35.416H130.735V46.936H118.575V1.24H151.279ZM152.303 23.96C158.767 23.96 160.367 21.912 160.367 18.328C160.367 14.744 158.767 12.76 152.303 12.76H130.735V23.96H152.303ZM214.454 1.24C225.718 1.24 235.126 8.152 235.126 23.32C235.126 26.136 234.934 28.312 234.934 28.312H190.07C190.838 32.344 192.886 35.48 197.75 35.48H214.39C219.19 35.48 221.046 34.456 222.07 31.64H234.934C232.758 45.016 218.678 46.936 211.062 46.936H201.078C192.886 46.936 176.95 45.144 176.95 24.088C176.95 3.096 192.886 1.24 201.078 1.24H214.454ZM197.75 12.76C192.886 12.76 190.838 15.896 190.07 19.928H222.07C222.006 14.744 219.19 12.76 214.39 12.76H197.75ZM273.415 0.599998C283.463 0.599998 298.439 5.848 298.439 24.088V46.936H285.703V25.368C285.703 16.408 281.031 12.76 271.111 12.76H270.215C256.519 12.76 252.359 22.936 252.359 31V46.936H240.263V1.24H252.359V8.536C258.247 2.648 267.079 0.599998 273.415 0.599998ZM315.735 15.32C315.735 22.936 355.031 11.48 355.031 32.92C355.031 38.104 353.047 46.936 333.463 46.936H325.271C305.687 46.936 303.703 36.184 303.703 31H315.799C315.799 32.344 316.631 35.48 322.007 35.48H338.647C342.039 35.48 342.935 34.264 342.935 32.92C342.935 24.728 303.575 36.824 303.575 15.32C303.575 10.072 305.559 1.24 325.207 1.24H333.335C352.983 1.24 354.967 11.992 354.967 17.24H342.807C342.807 15.832 342.039 12.76 336.599 12.76H319.959C316.439 12.76 315.735 13.912 315.735 15.32ZM396.392 1.24C407.656 1.24 417.064 8.152 417.064 23.32C417.064 26.136 416.872 28.312 416.872 28.312H372.008C372.776 32.344 374.824 35.48 379.688 35.48H396.328C401.128 35.48 402.984 34.456 404.008 31.64H416.872C414.696 45.016 400.616 46.936 393 46.936H383.016C374.824 46.936 358.888 45.144 358.888 24.088C358.888 3.096 374.824 1.24 383.016 1.24H396.392ZM379.688 12.76C374.824 12.76 372.776 15.896 372.008 19.928H404.008C403.944 14.744 401.128 12.76 396.328 12.76H379.688ZM445.825 12.76V1.24H491.841V12.76H474.689V46.936H462.593V12.76H445.825ZM551.541 16.408C551.541 29.4 539.317 32.216 531.061 32.216H525.301C529.653 33.624 536.693 34.84 548.085 34.84H551.541V46.936C539.381 46.936 521.397 44.056 515.061 32.216H509.109V46.936H497.013V1.24H532.917C541.109 1.24 551.541 4.248 551.541 16.408ZM509.109 12.76V21.976H531.509C536.437 21.976 538.741 20.12 538.741 17.304C538.741 14.424 537.205 12.76 533.301 12.76H509.109ZM592.062 1.56C600.254 1.56 616.126 3.352 616.126 24.344V46.936H604.03V35.672H570.046V46.936H557.95V24.344C557.95 3.352 573.886 1.56 582.078 1.56H592.062ZM570.046 24.984H604.03V23.704C604.03 17.944 602.494 13.016 596.03 13.016H578.11C571.646 13.016 570.046 17.944 570.046 23.704V24.984ZM642.063 12.76C635.599 12.76 634.062 18.328 634.062 24.088C634.062 29.912 635.599 35.48 642.063 35.48H658.703C663.503 35.48 665.487 33.048 666.383 28.248H679.247C677.263 45.336 662.991 46.936 655.375 46.936H645.391C637.199 46.936 621.263 45.144 621.263 24.088C621.263 3.096 637.199 1.24 645.391 1.24H655.375C662.991 1.24 677.263 2.84 679.247 19.928H666.383C665.807 15.512 663.503 12.76 658.703 12.76H642.063ZM720.868 1.24H739.364L715.876 20.248L739.364 46.936H722.148L706.02 28.184L696.484 35.928V46.936H684.388V1.24H696.484V20.952L720.868 1.24ZM773.642 1.24C784.906 1.24 794.314 8.152 794.314 23.32C794.314 26.136 794.122 28.312 794.122 28.312H749.258C750.026 32.344 752.074 35.48 756.938 35.48H773.578C778.378 35.48 780.234 34.456 781.258 31.64H794.122C791.946 45.016 777.866 46.936 770.25 46.936H760.266C752.074 46.936 736.138 45.144 736.138 24.088C736.138 3.096 752.074 1.24 760.266 1.24H773.642ZM756.938 12.76C752.074 12.76 750.026 15.896 749.258 19.928H781.258C781.194 14.744 778.378 12.76 773.578 12.76H756.938ZM853.978 16.408C853.978 29.4 841.754 32.216 833.498 32.216H827.738C832.09 33.624 839.13 34.84 850.522 34.84H853.978V46.936C841.818 46.936 823.834 44.056 817.498 32.216H811.546V46.936H799.45V1.24H835.354C843.546 1.24 853.978 4.248 853.978 16.408ZM811.546 12.76V21.976H833.946C838.874 21.976 841.178 20.12 841.178 17.304C841.178 14.424 839.642 12.76 835.738 12.76H811.546Z" fill="#E0447D"/>
<path d="M858.392 12.7596L857.105 40.738L880.95 26.0463L860.256 44.9195L887.506 51.3922L859.527 50.1046L874.219 73.95L855.346 53.2558L848.873 80.5057L850.161 52.5273L826.315 67.219L847.009 48.3457L819.76 41.873L847.738 43.1606L833.046 19.3152L851.92 40.0094L858.392 12.7596Z" fill="white"/>
</svg>
